<?xml version="1.0" encoding="UTF-8" standalone="no"?>
<svg
   xmlns:dc="http://purl.org/dc/elements/1.1/"
   xmlns:cc="http://creativecommons.org/ns#"
   xmlns:rdf="http://www.w3.org/1999/02/22-rdf-syntax-ns#"
   xmlns:svg="http://www.w3.org/2000/svg"
   xmlns="http://www.w3.org/2000/svg"
   height="41.143002"
   width="39.143002"
   id="svg20"
   version="1.1"
   viewBox="0 0 39.143002 41.143002">
  <metadata
     id="metadata26">
    <rdf:RDF>
      <cc:Work
         rdf:about="">
        <dc:format>image/svg+xml</dc:format>
        <dc:type
           rdf:resource="http://purl.org/dc/dcmitype/StillImage" />
        <dc:title></dc:title>
      </cc:Work>
    </rdf:RDF>
  </metadata>
  <defs
     id="defs24" />
  <g
     transform="translate(1.5715001,2.5715001)"
     style="stroke:#000000;stroke-width:5.14300013;stroke-linejoin:round;stroke-miterlimit:4;stroke-dasharray:none;stroke-opacity:1"
     id="g996">
    <path
       style="stroke:#000000;stroke-width:5.14300013;stroke-linejoin:round;stroke-miterlimit:4;stroke-dasharray:none;stroke-opacity:1"
       d="M 24,0 H 4 C 2.343,0 1,1.343 1,3 V 7 C 1,9.209 2.791,11 5,11 6.674,11 8.104,9.969 8.701,8.509 9.051,8.811 9.502,9 10,9 10.677,9 11.273,8.662 11.635,8.147 12.345,9.258 13.583,10 15,10 16.301,10 17.445,9.369 18.176,8.407 18.54,9.338 19.44,10 20.5,10 21.449,10 22.265,9.465 22.688,8.686 23.086,8.881 23.527,9 24,9 25.657,9 27,7.657 27,6 V 3 C 27,1.343 25.657,0 24,0 Z M 3,5 v 7.445 C 3.59,12.789 4.268,13 5,13 6.674,13 8.104,11.969 8.701,10.509 9.051,10.811 9.502,11 10,11 10.677,11 11.273,10.662 11.635,10.147 12.345,11.258 13.583,12 15,12 16.301,12 17.445,11.369 18.176,10.407 18.54,11.338 19.44,12 20.5,12 c 0.949,0 1.765,-0.535 2.188,-1.314 l 0.147,-0.361 c 0.497,0.271 1.059,0.439 1.665,0.439 0.981,0 1.865,-0.406 2.5,-1.056 V 5 Z m 5.5,27 c -0.552,0 -1,-0.447 -1,-1 V 15 c 0,-0.552 0.448,-1 1,-1 0.552,0 1,0.448 1,1 v 16 c 0,0.553 -0.448,1 -1,1 z m 6.5,0 c -0.552,0 -1,-0.447 -1,-1 V 15 c 0,-0.552 0.448,-1 1,-1 0.552,0 1,0.448 1,1 v 16 c 0,0.553 -0.448,1 -1,1 z m 6.5,0 c -0.553,0 -1,-0.447 -1,-1 V 15 c 0,-0.552 0.447,-1 1,-1 0.553,0 1,0.448 1,1 v 16 c 0,0.553 -0.447,1 -1,1 z M 27,6 H 3 v 26 c 0,2.209 1.791,4 4,4 h 16 c 2.209,0 4,-1.791 4,-4 z m 4,-0.282 h -6 v 4 h 4 c 0,0 2,0 2,2 v 12 c 0,2 -2,2 -2,2 h -4 v 4 h 6 c 2.206,0 4,-1.794 4,-4 v -16 c 0,-2.206 -1.794,-4 -4,-4 z"
       id="path18" />
  </g>
  <g
     transform="translate(1.5715001,2.5715001)"
     id="g1008">
    <path
       style="fill:#ffac33"
       id="path998"
       d="m 31,5.718 h -6 v 4 h 4 c 0,0 2,0 2,2 v 12 c 0,2 -2,2 -2,2 h -4 v 4 h 6 c 2.206,0 4,-1.794 4,-4 v -16 c 0,-2.206 -1.794,-4 -4,-4 z" />
    <path
       style="fill:#ffcc4d"
       id="path1000"
       d="M 27,6 H 3 v 26 c 0,2.209 1.791,4 4,4 h 16 c 2.209,0 4,-1.791 4,-4 z" />
    <path
       style="fill:#f4900c"
       id="path1002"
       d="m 8.5,32 c -0.552,0 -1,-0.447 -1,-1 V 15 c 0,-0.552 0.448,-1 1,-1 0.552,0 1,0.448 1,1 v 16 c 0,0.553 -0.448,1 -1,1 z m 6.5,0 c -0.552,0 -1,-0.447 -1,-1 V 15 c 0,-0.552 0.448,-1 1,-1 0.552,0 1,0.448 1,1 v 16 c 0,0.553 -0.448,1 -1,1 z m 6.5,0 c -0.553,0 -1,-0.447 -1,-1 V 15 c 0,-0.552 0.447,-1 1,-1 0.553,0 1,0.448 1,1 v 16 c 0,0.553 -0.447,1 -1,1 z" />
    <path
       style="fill:#ffac33"
       id="path1004"
       d="m 3,5 v 7.445 C 3.59,12.789 4.268,13 5,13 6.674,13 8.104,11.969 8.701,10.509 9.051,10.811 9.502,11 10,11 10.677,11 11.273,10.662 11.635,10.147 12.345,11.258 13.583,12 15,12 16.301,12 17.445,11.369 18.176,10.407 18.54,11.338 19.44,12 20.5,12 c 0.949,0 1.765,-0.535 2.188,-1.314 l 0.147,-0.361 c 0.497,0.271 1.059,0.439 1.665,0.439 0.981,0 1.865,-0.406 2.5,-1.056 V 5 Z" />
    <path
       style="fill:#eeeeee"
       id="path1006"
       d="M 24,0 H 4 C 2.343,0 1,1.343 1,3 V 7 C 1,9.209 2.791,11 5,11 6.674,11 8.104,9.969 8.701,8.509 9.051,8.811 9.502,9 10,9 10.677,9 11.273,8.662 11.635,8.147 12.345,9.258 13.583,10 15,10 16.301,10 17.445,9.369 18.176,8.407 18.54,9.338 19.44,10 20.5,10 21.449,10 22.265,9.465 22.688,8.686 23.086,8.881 23.527,9 24,9 25.657,9 27,7.657 27,6 V 3 C 27,1.343 25.657,0 24,0 Z" />
  </g>
</svg>
